<?xml version="1.0" encoding="utf-8"?>
<!-- Svg Vector Icons : http://www.onlinewebfonts.com/icon -->
<!DOCTYPE svg PUBLIC "-//W3C//DTD SVG 1.1//EN" "http://www.w3.org/Graphics/SVG/1.1/DTD/svg11.dtd">
<svg version="1.1" xmlns="http://www.w3.org/2000/svg" xmlns:xlink="http://www.w3.org/1999/xlink" x="0px" y="0px" viewBox="0 0 1000 1000" enable-background="new 0 0 1000 1000" xml:space="preserve">
<metadata> Svg Vector Icons : http://www.onlinewebfonts.com/icon </metadata>
<g><g transform="translate(0.000000,512.000000) scale(0.100000,-0.100000)"><path d="M6351.8,5000.2c-65.2-28.8-456.4-454.5-805.4-874.4C4415,2758.6,3634.6,1448.9,3237.7,246.6c-67.1-203.3-88.2-243.5-113.1-232c-396.9,166.8-826.5,117-1171.6-136.2c-172.6-126.6-295.3-168.7-479.4-168.7c-187.9,0-289.6,36.4-498.6,178.3C787.1,16.5,635.6,77.9,449.6,102.8C303.8,122,277,122,215.6,93.2C127.4,49.1,81.4-50.6,112.1-140.7c32.6-99.7,78.6-126.6,239.7-145.7c164.9-17.3,262.7-61.4,500.5-214.8c224.3-147.7,329.8-176.4,621.3-176.4c299.1,0,410.4,34.5,678.8,210.9c232,153.4,349,191.8,550.3,176.4c159.2-9.6,276.1-57.5,437.2-174.5c210.9-153.4,421.9-222.5,686.5-222.5c272.3,0,425.7,51.8,726.7,249.3c157.2,101.6,295.3,153.4,414.2,153.4c86.3,0,178.3,42.2,207.1,94c28.8,55.6,23,168.7-11.5,222.4c-44.1,65.2-140,92-281.9,76.7c-199.4-23-341.3-78.6-559.9-220.5c-115.1-74.8-243.5-143.8-285.7-157.2c-105.5-30.7-349-24.9-443,9.6c-94,32.6-94,26.9,28.8,396.9c419.9,1261.7,1334.6,2721,2615.5,4178.3l193.7,218.6l122.7-132.3c210.9-226.3,705.7-826.5,960.7-1167.8c1501.4-2001.9,2178.3-3766,1946.3-5071.9C9253-3005.5,8386.3-3958.6,7247.2-4273c-715.2-197.5-1465-130.4-2141.9,193.7c-247.4,117-698,420-698,467.9c0,5.8,65.2,53.7,145.7,105.5c157.2,101.6,295.3,153.4,414.2,153.4c86.3,0,178.3,42.2,207.1,94c28.8,55.6,23,168.7-11.5,222.4c-97.8,149.6-485.1,90.1-811.1-124.6c-224.4-147.7-256.9-163-398.9-189.8c-82.4-15.3-151.5-17.2-230.1-3.8c-151.5,24.9-191.8,42.2-383.5,168.7c-209,136.1-345.2,191.7-540.7,220.5c-293.4,40.3-592.5-38.3-845.6-224.4c-172.6-126.5-295.3-168.7-479.4-168.7c-187.9,0-289.6,36.4-498.6,178.3c-187.9,128.5-339.4,189.8-525.4,214.8c-145.7,19.2-172.6,19.2-233.9-9.6c-88.2-44.1-134.2-143.8-103.5-233.9c32.6-99.7,78.6-126.6,239.7-145.7c164.9-17.3,262.7-61.4,500.5-214.8c224.3-147.7,329.8-176.4,621.3-176.4c299.1,0,410.4,34.5,678.8,210.9c232,153.4,349,191.8,550.3,176.4c161.1-9.6,256.9-49.9,452.5-182.2c235.9-159.2,404.6-214.8,657.7-214.8h155.3l109.3-101.6c260.8-243.5,521.6-420,851.4-579.1c1710.4-820.7,3748.8-124.6,4605.9,1574.3c561.8,1110.3,475.6,2410.4-260.8,4005.8c-485.1,1050.8-1328.8,2289.5-2316.4,3403.6C6543.5,5013.6,6484.1,5057.7,6351.8,5000.2z"/><path d="M4844.6-919.2c-178.3-23-312.6-78.6-513.9-210.9C4110.2-1274,4045-1300.8,3882-1314.3c-209-19.2-299.1-126.5-233.9-281.9c44.1-105.5,124.6-132.3,320.2-107.4c195.6,23,339.4,82.5,559.9,228.2c178.3,117,333.7,174.5,473.6,174.5c140,0,295.3-57.5,473.6-174.5c310.6-205.2,552.2-268.5,857.1-226.3c193.7,24.9,303,69,517.7,209c222.4,143.8,283.8,168.7,450.6,184.1c103.5,9.6,147.6,23,184.1,57.5c86.3,78.6,86.3,201.3,0,287.6c-40.3,40.3-63.3,46-187.9,46c-224.4,0-387.3-59.4-676.9-249.3c-320.2-209-571.4-209-889.7,1.9C5508-1019,5429.4-980.6,5293.3-948C5137.9-909.7,4994.1-900.1,4844.6-919.2z"/><path d="M173.5-955.7c-95.9-92-97.8-214.8-3.8-293.4c40.3-34.5,86.3-49.8,182.2-57.5c141.9-13.4,278-69,421.9-170.7c266.5-189.8,542.7-264.6,836-228.2c189.8,24.9,327.9,78.6,510.1,197.5c210.9,138.1,320.2,184.1,473.6,199.4c170.7,17.2,245.4,74.8,249.3,195.6c0,63.3-9.6,90.1-55.6,138.1c-51.8,53.7-65.2,57.5-189.8,57.5c-228.2,0-391.2-57.5-632.8-220.5c-230.1-153.4-278-170.6-490.9-170.6c-212.9,0-256.9,15.3-510.1,182.2C739.1-978.7,608.7-932.7,390.1-923.1C232.9-915.4,213.7-917.3,173.5-955.7z"/><path d="M173.5-1981.6c-74.8-61.4-92-138.1-53.7-228.2c34.5-82.5,120.8-126.6,247.4-126.6c118.9,0,226.3-42.2,393.1-155.3c243.5-166.8,466-247.4,678.8-247.4c199.4,0,299.1,187.9,172.6,327.9c-46,51.8-69,61.3-199.4,74.8c-176.4,21.1-237.8,46-419.9,168.7c-187.9,126.6-280,170.7-423.8,205.2C376.7-1918.3,240.6-1924,173.5-1981.6z"/><path d="M2549.3-1958.6c-128.5-76.7-128.5-272.3,1.9-341.3c23-11.5,103.5-28.8,180.2-38.4c147.6-15.3,247.4-57.5,398.8-164.9c241.6-172.6,508.1-251.2,778.5-230.1c216.7,17.3,368.2,72.9,604,224.4c115.1,74.8,239.7,143.8,278,153.4c103.5,28.8,404.6,23,498.6-9.6c44.1-15.3,157.2-80.5,251.2-141.9c301.1-199.4,627-283.8,784.3-203.3c71,36.4,95.9,82.5,95.9,176.4c0,122.7-95.9,197.5-247.4,197.5c-118.9,0-237.8,46-412.3,161.1c-304.9,197.5-437.2,241.6-730.6,241.6c-281.9,0-467.9-59.4-719.1-230.1c-199.4-134.2-264.6-159.2-442.9-168.7c-212.9-11.5-303,19.2-544.6,178.3c-103.5,67.1-239.7,140-304.9,163C2867.6-1939.4,2612.6-1922.1,2549.3-1958.6z"/></g></g>
</svg>