<?xml version="1.0" encoding="utf-8"?>
<!-- Svg Vector Icons : http://www.onlinewebfonts.com/icon -->
<!DOCTYPE svg PUBLIC "-//W3C//DTD SVG 1.1//EN" "http://www.w3.org/Graphics/SVG/1.1/DTD/svg11.dtd">
<svg version="1.1" xmlns="http://www.w3.org/2000/svg" xmlns:xlink="http://www.w3.org/1999/xlink" x="0px" y="0px" viewBox="0 0 1000 1000" enable-background="new 0 0 1000 1000" xml:space="preserve">
<metadata> Svg Vector Icons : http://www.onlinewebfonts.com/icon </metadata>
<g><path d="M500,206.8c-161.7,0-293.3,131.5-293.3,293.2c0,161.7,131.5,293.3,293.3,293.3c161.6,0,293.2-131.6,293.2-293.3C793.2,338.4,661.6,206.8,500,206.8z M500,724c-123.4,0-224-100.5-224-224c0-123.5,100.6-223.9,224-223.9C623.6,276.1,724,376.5,724,500C724,623.5,623.6,724,500,724z"/><path d="M500,155.9c9.6,0,17.3-7.8,17.3-17.3V27.3c0-9.6-7.7-17.4-17.3-17.4c-9.5,0-17.3,7.8-17.3,17.4v111.2C482.7,148.1,490.5,155.9,500,155.9z"/><path d="M304.3,195.6c3.2,5.5,9,8.7,14.9,8.7c3,0,6-0.8,8.7-2.3c8.3-4.8,11.2-15.3,6.3-23.7L278.7,82c-4.8-8.4-15.4-11.1-23.7-6.3c-8.3,4.9-11.1,15.4-6.3,23.7L304.3,195.6z"/><path d="M195.6,304.2l-96.3-55.5c-8.2-4.8-18.9-2-23.6,6.3c-4.8,8.3-2,18.9,6.3,23.6l96.3,55.7c2.7,1.6,5.7,2.3,8.6,2.3c5.9,0,11.8-3.2,15-8.7C206.7,319.7,203.9,309.1,195.6,304.2z"/><path d="M155.8,500c0-9.5-7.8-17.3-17.4-17.3H27.3c-9.6,0-17.3,7.8-17.3,17.3c0,9.7,7.7,17.3,17.3,17.3h111.2C148.1,517.3,155.8,509.7,155.8,500z"/><path d="M178.3,665.8L82,721.4c-8.3,4.8-11.1,15.4-6.3,23.7c3.2,5.6,9,8.7,15,8.7c2.9,0,5.9-0.8,8.6-2.4l96.3-55.6c8.2-4.7,11.1-15.4,6.3-23.6C197.1,663.8,186.5,661,178.3,665.8z"/><path d="M327.9,798.1c-8.2-4.7-18.8-1.9-23.6,6.3l-55.6,96.3c-4.8,8.2-2,18.8,6.3,23.7c2.8,1.6,5.7,2.3,8.7,2.3c5.9,0,11.8-3,15-8.6l55.5-96.2C339.1,813.5,336.2,802.9,327.9,798.1z"/><path d="M500,844.2c-9.5,0-17.3,7.8-17.3,17.4v111.2c0,9.5,7.8,17.3,17.3,17.3c9.6,0,17.3-7.8,17.3-17.3V861.6C517.3,852,509.6,844.2,500,844.2z"/><path d="M695.8,804.5c-4.8-8.3-15.4-11.2-23.7-6.3c-8.3,4.8-11.1,15.3-6.3,23.7l55.6,96.2c3.2,5.6,9.1,8.6,15,8.6c2.9,0,5.9-0.7,8.7-2.3c8.3-4.9,11.1-15.4,6.3-23.7L695.8,804.5z"/><path d="M918,721.4l-96.3-55.6c-8.2-4.7-18.9-2-23.6,6.3c-4.9,8.2-2,18.9,6.3,23.6l96.2,55.6c2.8,1.6,5.8,2.4,8.7,2.4c6,0,11.8-3.1,15-8.7C929.2,736.7,926.4,726.2,918,721.4z"/><path d="M972.7,482.7H861.5c-9.6,0-17.3,7.8-17.3,17.3c0,9.7,7.7,17.3,17.3,17.3h111.2c9.5,0,17.3-7.6,17.3-17.3C990,490.5,982.2,482.7,972.7,482.7z"/><path d="M813.1,336.7c3,0,5.9-0.7,8.6-2.3l96.3-55.7c8.4-4.7,11.2-15.3,6.3-23.6c-4.7-8.3-15.4-11.2-23.7-6.3l-96.2,55.5c-8.3,4.9-11.2,15.5-6.3,23.7C801.3,333.5,807.1,336.7,813.1,336.7z"/><path d="M672.1,202c2.7,1.5,5.7,2.3,8.7,2.3c5.9,0,11.8-3.1,15-8.7l55.6-96.3c4.8-8.3,1.9-18.8-6.3-23.7c-8.2-4.8-18.9-2-23.7,6.3l-55.6,96.3C661,186.7,663.8,197.2,672.1,202z"/></g>
</svg>